<?xml version="1.0" encoding="UTF-8"?>
<svg xmlns="http://www.w3.org/2000/svg" width="42" height="42" viewBox="0 0 42 42" fill="none">
  <rect width="42" height="42" rx="8" fill="#FDA0FA"></rect>
  <path d="M17.007 11.385C15.5783 11.7785 14.1594 12.2066 12.7515 12.669C12.6229 12.7105 12.5085 12.7874 12.4215 12.8908C12.3345 12.9943 12.2783 13.1201 12.2595 13.254C11.4285 19.4895 13.3485 24.039 15.639 27.036C16.6084 28.318 17.7648 29.4471 19.0695 30.3855C19.5885 30.7515 20.0475 31.0155 20.409 31.185C20.589 31.27 20.7355 31.329 20.8485 31.362C20.8983 31.3771 20.9489 31.3896 21 31.3995C21.0506 31.3896 21.1007 31.3771 21.15 31.362C21.264 31.328 21.411 31.269 21.591 31.185C21.951 31.0155 22.4115 30.75 22.9305 30.3855C24.2353 29.4471 25.3917 28.318 26.361 27.036C28.6515 24.0405 30.5715 19.4895 29.7405 13.254C29.7217 13.1201 29.6656 12.9943 29.5786 12.8908C29.4915 12.7874 29.3772 12.7105 29.2485 12.669C28.272 12.3495 26.6235 11.829 24.993 11.3865C23.328 10.935 21.7965 10.6005 21 10.6005C20.205 10.6005 18.672 10.9335 17.007 11.385ZM16.608 9.84C18.2355 9.3975 19.965 9 21 9C22.035 9 23.7645 9.3975 25.392 9.84C27.057 10.29 28.7355 10.8225 29.7225 11.145C30.1352 11.2813 30.501 11.5312 30.778 11.8661C31.055 12.2009 31.232 12.6071 31.2885 13.038C32.1825 19.7535 30.108 24.7305 27.591 28.023C26.5232 29.4311 25.2506 30.6713 23.8155 31.7025C23.3198 32.0602 22.7938 32.3739 22.2435 32.64C21.8235 32.838 21.372 33 21 33C20.628 33 20.178 32.838 19.7565 32.64C19.2062 32.3739 18.6802 32.0602 18.1845 31.7025C16.7494 30.6713 15.4768 29.4311 14.409 28.023C11.892 24.7305 9.81751 19.7535 10.7115 13.038C10.768 12.6071 10.945 12.2009 11.222 11.8661C11.499 11.5312 11.8648 11.2813 12.2775 11.145C13.7104 10.6755 15.1543 10.2404 16.608 9.84Z" fill="#82277F"></path>
</svg>
