<?xml version="1.0" encoding="UTF-8"?>
<svg xmlns="http://www.w3.org/2000/svg" width="42" height="42" viewBox="0 0 42 42" fill="none">
  <rect width="42" height="42" rx="8" fill="#A5E2FC"></rect>
  <path fill-rule="evenodd" clip-rule="evenodd" d="M14.4002 18.5C15.1428 18.5 15.855 18.205 16.3801 17.6799C16.9052 17.1548 17.2002 16.4426 17.2002 15.7C17.2002 14.9574 16.9052 14.2452 16.3801 13.7201C15.855 13.195 15.1428 12.9 14.4002 12.9C13.6576 12.9 12.9454 13.195 12.4203 13.7201C11.8952 14.2452 11.6002 14.9574 11.6002 15.7C11.6002 16.4426 11.8952 17.1548 12.4203 17.6799C12.9454 18.205 13.6576 18.5 14.4002 18.5ZM14.4002 19.9C14.9517 19.9 15.4979 19.7914 16.0075 19.5803C16.517 19.3692 16.98 19.0599 17.37 18.6698C17.76 18.2798 18.0694 17.8168 18.2805 17.3073C18.4916 16.7977 18.6002 16.2516 18.6002 15.7C18.6002 15.1484 18.4916 14.6023 18.2805 14.0927C18.0694 13.5832 17.76 13.1202 17.37 12.7302C16.98 12.3401 16.517 12.0308 16.0075 11.8197C15.4979 11.6086 14.9517 11.5 14.4002 11.5C13.2863 11.5 12.218 11.9425 11.4303 12.7302C10.6427 13.5178 10.2002 14.5861 10.2002 15.7C10.2002 16.8139 10.6427 17.8822 11.4303 18.6698C12.218 19.4575 13.2863 19.9 14.4002 19.9Z" fill="#146688"></path>
  <path fill-rule="evenodd" clip-rule="evenodd" d="M12.7956 18.3542C12.8608 18.4192 12.9125 18.4964 12.9478 18.5815C12.9831 18.6665 13.0013 18.7577 13.0013 18.8498C13.0013 18.9418 12.9831 19.033 12.9478 19.1181C12.9125 19.2031 12.8608 19.2803 12.7956 19.3454L12.3224 19.8172C11.4117 20.7281 10.9001 21.9633 10.9 23.2514V25.8498C10.9 26.0354 10.8263 26.2135 10.695 26.3447C10.5637 26.476 10.3857 26.5498 10.2 26.5498C10.0143 26.5498 9.8363 26.476 9.70503 26.3447C9.57375 26.2135 9.5 26.0354 9.5 25.8498V23.2514C9.5002 21.5921 10.1594 20.0008 11.3326 18.8274L11.8044 18.3542C11.8694 18.289 11.9467 18.2373 12.0317 18.202C12.1168 18.1667 12.2079 18.1485 12.3 18.1485C12.3921 18.1485 12.4832 18.1667 12.5683 18.202C12.6533 18.2373 12.7306 18.289 12.7956 18.3542ZM29.3044 17.9342C29.2392 17.9992 29.1875 18.0764 29.1522 18.1615C29.1169 18.2465 29.0987 18.3377 29.0987 18.4298C29.0987 18.5218 29.1169 18.613 29.1522 18.6981C29.1875 18.7831 29.2392 18.8603 29.3044 18.9254L29.7776 19.3972C30.2286 19.8482 30.5863 20.3836 30.8304 20.9728C31.0744 21.562 31.2 22.1936 31.2 22.8314V25.8498C31.2 26.0354 31.2737 26.2135 31.405 26.3447C31.5363 26.476 31.7143 26.5498 31.9 26.5498C32.0857 26.5498 32.2637 26.476 32.395 26.3447C32.5263 26.2135 32.6 26.0354 32.6 25.8498V22.8314C32.5998 21.1721 31.9406 19.5808 30.7674 18.4074L30.2956 17.9342C30.2306 17.869 30.1533 17.8173 30.0683 17.782C29.9832 17.7467 29.8921 17.7285 29.8 17.7285C29.7079 17.7285 29.6168 17.7467 29.5317 17.782C29.4467 17.8173 29.3694 17.869 29.3044 17.9342Z" fill="#146688"></path>
  <path fill-rule="evenodd" clip-rule="evenodd" d="M26.9998 18.5C26.2572 18.5 25.545 18.205 25.0199 17.6799C24.4948 17.1548 24.1998 16.4426 24.1998 15.7C24.1998 14.9574 24.4948 14.2452 25.0199 13.7201C25.545 13.195 26.2572 12.9 26.9998 12.9C27.7424 12.9 28.4546 13.195 28.9797 13.7201C29.5048 14.2452 29.7998 14.9574 29.7998 15.7C29.7998 16.4426 29.5048 17.1548 28.9797 17.6799C28.4546 18.205 27.7424 18.5 26.9998 18.5ZM26.9998 19.9C26.4483 19.9 25.9021 19.7914 25.3925 19.5803C24.883 19.3692 24.42 19.0599 24.03 18.6698C23.6399 18.2798 23.3306 17.8168 23.1195 17.3073C22.9084 16.7977 22.7998 16.2516 22.7998 15.7C22.7998 15.1484 22.9084 14.6023 23.1195 14.0927C23.3306 13.5832 23.6399 13.1202 24.03 12.7302C24.42 12.3401 24.883 12.0308 25.3925 11.8197C25.9021 11.6086 26.4483 11.5 26.9998 11.5C28.1137 11.5 29.182 11.9425 29.9697 12.7302C30.7573 13.5178 31.1998 14.5861 31.1998 15.7C31.1998 16.8139 30.7573 17.8822 29.9697 18.6698C29.182 19.4575 28.1137 19.9 26.9998 19.9ZM20.6998 24.45C19.7715 24.45 18.8813 24.8187 18.2249 25.4751C17.5686 26.1315 17.1998 27.0217 17.1998 27.95V29.77C17.1998 29.9557 17.1261 30.1337 16.9948 30.265C16.8635 30.3962 16.6855 30.47 16.4998 30.47C16.3142 30.47 16.1361 30.3962 16.0048 30.265C15.8736 30.1337 15.7998 29.9557 15.7998 29.77V27.95C15.7998 26.6504 16.3161 25.4041 17.235 24.4852C18.1539 23.5662 19.4002 23.05 20.6998 23.05C21.9994 23.05 23.2457 23.5662 24.1646 24.4852C25.0836 25.4041 25.5998 26.6504 25.5998 27.95V29.77C25.5998 29.9557 25.5261 30.1337 25.3948 30.265C25.2635 30.3962 25.0855 30.47 24.8998 30.47C24.7142 30.47 24.5361 30.3962 24.4048 30.265C24.2736 30.1337 24.1998 29.9557 24.1998 29.77V27.95C24.1998 27.4904 24.1093 27.0352 23.9334 26.6106C23.7575 26.186 23.4997 25.8001 23.1747 25.4751C22.8497 25.1501 22.4638 24.8923 22.0392 24.7164C21.6146 24.5405 21.1594 24.45 20.6998 24.45Z" fill="#146688"></path>
  <path fill-rule="evenodd" clip-rule="evenodd" d="M20.7 22.3496C21.4426 22.3496 22.1548 22.0546 22.6799 21.5295C23.205 21.0044 23.5 20.2922 23.5 19.5496C23.5 18.807 23.205 18.0948 22.6799 17.5697C22.1548 17.0446 21.4426 16.7496 20.7 16.7496C19.9574 16.7496 19.2452 17.0446 18.7201 17.5697C18.195 18.0948 17.9 18.807 17.9 19.5496C17.9 20.2922 18.195 21.0044 18.7201 21.5295C19.2452 22.0546 19.9574 22.3496 20.7 22.3496ZM20.7 23.7496C21.8139 23.7496 22.8822 23.3071 23.6698 22.5195C24.4575 21.7318 24.9 20.6635 24.9 19.5496C24.9 18.4357 24.4575 17.3674 23.6698 16.5798C22.8822 15.7921 21.8139 15.3496 20.7 15.3496C19.5861 15.3496 18.5178 15.7921 17.7302 16.5798C16.9425 17.3674 16.5 18.4357 16.5 19.5496C16.5 20.6635 16.9425 21.7318 17.7302 22.5195C18.5178 23.3071 19.5861 23.7496 20.7 23.7496Z" fill="#146688"></path>
</svg>
