<?xml version="1.0" encoding="UTF-8"?>
<svg xmlns="http://www.w3.org/2000/svg" width="42" height="42" viewBox="0 0 42 42" fill="none">
  <rect width="42" height="42" rx="8" fill="#FFB8B3"></rect>
  <g clip-path="url(#clip0_7534_4977)">
    <path d="M23.9334 31.2658H29.8001C30.189 31.2658 30.5621 31.1112 30.8372 30.8362C31.1122 30.5611 31.2667 30.1881 31.2667 29.7991V12.1991C31.2667 11.8101 31.1122 11.4371 30.8372 11.162C30.5621 10.8869 30.189 10.7324 29.8001 10.7324H23.9334C23.5444 10.7324 23.1714 10.8869 22.8963 11.162C22.6213 11.4371 22.4667 11.8101 22.4667 12.1991V29.7991C22.4667 30.1881 22.6213 30.5611 22.8963 30.8362C23.1714 31.1112 23.5444 31.2658 23.9334 31.2658ZM23.9334 31.2658H15.8667M19.5334 26.8658V31.2658M22.4667 18.0658H31.2667M24.6667 26.8658H29.0667M12.2001 15.1324H22.4667V26.8658H12.2001C11.8111 26.8658 11.438 26.7112 11.163 26.4362C10.8879 26.1611 10.7334 25.7881 10.7334 25.3991V16.5991C10.7334 16.2101 10.8879 15.8371 11.163 15.562C11.438 15.2869 11.8111 15.1324 12.2001 15.1324Z" stroke="#B8352D" stroke-width="2"></path>
  </g>
  <defs>
    <clipPath id="clip0_7534_4977">
      <rect width="22" height="22" fill="white" transform="translate(10 10)"></rect>
    </clipPath>
  </defs>
</svg>
